<svg width="173" height="45" viewBox="0 0 173 45" fill="none" xmlns="http://www.w3.org/2000/svg">
<g clip-path="url(#clip0_1_1359)">
<path fill-rule="evenodd" clip-rule="evenodd" d="M7.43091 0.0117909L28.6474 1.62551C30.6237 1.77383 32.1435 3.39942 32.1435 5.35725L32.3237 13.4733L29.8969 41.488C29.7287 43.434 28.0768 44.935 26.0945 44.935H9.31109C7.32879 44.935 5.68289 43.4399 5.50869 41.488L3.08789 13.4911V5.38691L3.3582 3.29263C3.61049 1.29921 5.40657 -0.142462 7.43091 0.0117909Z" fill="#002B67"/>
<path d="M31.7767 5.29785H3.81441C1.70777 5.29785 0 6.98454 0 9.06518V9.59913C0 11.6798 1.70777 13.3665 3.81441 13.3665H31.7767C33.8834 13.3665 35.5911 11.6798 35.5911 9.59913V9.06518C35.5911 6.98454 33.8834 5.29785 31.7767 5.29785Z" fill="#FF5C5E"/>
<path d="M17.462 18.635H9.10629C8.82397 18.635 8.5957 18.4096 8.5957 18.1308C8.5957 17.8519 8.82397 17.6265 9.10629 17.6265H17.462C17.7443 17.6265 17.9725 17.8519 17.9725 18.1308C17.9725 18.4096 17.7443 18.635 17.462 18.635Z" fill="white"/>
<path d="M26.7247 20.7889H9.10629C8.82397 20.7889 8.5957 20.5634 8.5957 20.2846C8.5957 20.0057 8.82397 19.7803 9.10629 19.7803H26.7187C27.001 19.7803 27.2292 20.0057 27.2292 20.2846C27.2292 20.5634 27.001 20.7889 26.7187 20.7889H26.7247Z" fill="white"/>
<path d="M14.921 23.1199H9.10629C8.82397 23.1199 8.5957 22.8945 8.5957 22.6156C8.5957 22.3368 8.82397 22.1113 9.10629 22.1113H14.915C15.1973 22.1113 15.4256 22.3368 15.4256 22.6156C15.4256 22.8945 15.1973 23.1199 14.915 23.1199H14.921Z" fill="#FF6600"/>
<path d="M17.8284 25.4519H9.10629C8.82397 25.4519 8.5957 25.2265 8.5957 24.9476C8.5957 24.6688 8.82397 24.4434 9.10629 24.4434H17.8224C18.1047 24.4434 18.333 24.6688 18.333 24.9476C18.333 25.2265 18.1047 25.4519 17.8224 25.4519H17.8284Z" fill="white"/>
<path d="M19.6425 27.9617H9.10629C8.82397 27.9617 8.5957 27.7363 8.5957 27.4574C8.5957 27.1786 8.82397 26.9531 9.10629 26.9531H19.6365C19.9188 26.9531 20.1471 27.1786 20.1471 27.4574C20.1471 27.7363 19.9188 27.9617 19.6365 27.9617H19.6425Z" fill="#FFCE00"/>
<path d="M26.3582 30.2928H9.10629C8.82397 30.2928 8.5957 30.0673 8.5957 29.7885C8.5957 29.5096 8.82397 29.2842 9.10629 29.2842H26.3582C26.6406 29.2842 26.8688 29.5096 26.8688 29.7885C26.8688 30.0673 26.6406 30.2928 26.3582 30.2928Z" fill="white"/>
<path d="M15.1012 32.8025H9.10629C8.82397 32.8025 8.5957 32.5771 8.5957 32.2982C8.5957 32.0194 8.82397 31.7939 9.10629 31.7939H15.1012C15.3836 31.7939 15.6118 32.0194 15.6118 32.2982C15.6118 32.5771 15.3836 32.8025 15.1012 32.8025Z" fill="#FF6600"/>
<path d="M12.9208 40.8709H11.287C11.0046 40.8709 10.7764 40.6454 10.7764 40.3666C10.7764 40.0878 11.0046 39.8623 11.287 39.8623H12.9208C13.2032 39.8623 13.4314 40.0878 13.4314 40.3666C13.4314 40.6454 13.2032 40.8709 12.9208 40.8709Z" fill="white"/>
<path d="M25.9977 25.4519H20.0028C19.7205 25.4519 19.4922 25.2265 19.4922 24.9476C19.4922 24.6688 19.7205 24.4434 20.0028 24.4434H25.9977C26.28 24.4434 26.5083 24.6688 26.5083 24.9476C26.5083 25.2265 26.28 25.4519 25.9977 25.4519Z" fill="#00D7A0"/>
<path d="M23.0908 23.1199H17.2821C16.9997 23.1199 16.7715 22.8945 16.7715 22.6156C16.7715 22.3368 16.9997 22.1113 17.2821 22.1113H23.0908C23.3731 22.1113 23.6014 22.3368 23.6014 22.6156C23.6014 22.8945 23.3731 23.1199 23.0908 23.1199Z" fill="#FFCE00"/>
<path d="M25.9977 18.635H20.0028C19.7205 18.635 19.4922 18.4096 19.4922 18.1308C19.4922 17.8519 19.7205 17.6265 20.0028 17.6265H25.9977C26.28 17.6265 26.5083 17.8519 26.5083 18.1308C26.5083 18.4096 26.28 18.635 25.9977 18.635Z" fill="#00D7A0"/>
<path d="M8.70406 40.6993C8.63799 40.6993 8.57191 40.6755 8.52385 40.6281C8.42174 40.5272 8.42174 40.373 8.52385 40.2721L9.62913 39.1805L8.52385 38.0888C8.42174 37.988 8.42174 37.8337 8.52385 37.7329C8.62597 37.632 8.78215 37.632 8.88427 37.7329L10.35 39.1805L8.88427 40.6281C8.83622 40.6755 8.77014 40.6993 8.70406 40.6993Z" fill="white"/>
<path d="M49.9293 33.2715C50.1876 33.5681 50.3137 33.9537 50.3137 34.4284C50.3137 35.0335 50.0854 35.5022 49.6349 35.8285C49.1844 36.1548 48.5116 36.315 47.6286 36.315H44.3368V29.249H47.4244C48.2233 29.249 48.842 29.4092 49.2805 29.7236C49.719 30.0381 49.9413 30.489 49.9413 31.0645C49.9413 31.456 49.8452 31.7883 49.6469 32.0612C49.4547 32.3341 49.1844 32.5358 48.842 32.6723C49.3105 32.7731 49.677 32.9748 49.9293 33.2715ZM45.0877 29.866V32.429H47.3643C47.941 32.429 48.3915 32.3222 48.7038 32.1027C49.0162 31.8832 49.1724 31.5688 49.1724 31.1475C49.1724 30.7263 49.0162 30.4119 48.7038 30.1923C48.3915 29.9728 47.947 29.866 47.3643 29.866H45.0877ZM49.0643 35.3776C49.3886 35.164 49.5568 34.8259 49.5568 34.369C49.5568 33.485 48.9081 33.046 47.6166 33.046H45.0937V35.698H47.6166C48.2593 35.698 48.7399 35.5912 49.0703 35.3776H49.0643Z" fill="#002B67"/>
<path d="M54.6628 31.2363C54.9991 31.0524 55.4196 30.9634 55.9122 30.9634V31.6575L55.738 31.6457C55.1733 31.6457 54.7288 31.8177 54.4105 32.1618C54.0921 32.5059 53.9299 32.9865 53.9299 33.6035V36.3088H53.2031V30.999H53.8999V32.0372C54.0681 31.6812 54.3264 31.4143 54.6628 31.2304V31.2363Z" fill="#002B67"/>
<path d="M63.3011 33.8825H58.8019C58.844 34.4342 59.0602 34.8792 59.4447 35.2173C59.8351 35.5555 60.3217 35.7276 60.9164 35.7276C61.2527 35.7276 61.5591 35.6682 61.8354 35.5496C62.1117 35.4309 62.358 35.2589 62.5623 35.0275L62.9707 35.4903C62.7305 35.775 62.4361 35.9886 62.0757 36.1369C61.7153 36.2853 61.3248 36.3564 60.8983 36.3564C60.3457 36.3564 59.8591 36.2378 59.4326 36.0064C59.0062 35.775 58.6758 35.4547 58.4355 35.0453C58.1952 34.6359 58.0751 34.1732 58.0751 33.6511C58.0751 33.129 58.1892 32.6662 58.4175 32.2569C58.6457 31.8475 58.9581 31.5271 59.3546 31.2958C59.751 31.0644 60.2015 30.9517 60.7001 30.9517C61.1987 30.9517 61.6432 31.0644 62.0397 31.2958C62.4361 31.5271 62.7425 31.8416 62.9707 32.2509C63.199 32.6603 63.3071 33.1231 63.3071 33.6511L63.2951 33.8706L63.3011 33.8825ZM59.4026 32.073C59.0542 32.3993 58.85 32.8264 58.8019 33.3485H62.6163C62.5683 32.8264 62.37 32.3993 62.0156 32.073C61.6672 31.7467 61.2287 31.5865 60.7001 31.5865C60.1715 31.5865 59.751 31.7467 59.3966 32.073H59.4026Z" fill="#002B67"/>
<path d="M73.9996 31.0049L71.9692 36.3147H71.2844L69.5905 31.966L67.8965 36.3147H67.2117L65.1874 31.0049H65.8842L67.5721 35.5138L69.3021 31.0049H69.9269L71.6448 35.5138L73.3508 31.0049H74.0176H73.9996Z" fill="#002B67"/>
<path d="M76.4019 29.6938C76.2998 29.593 76.2517 29.4743 76.2517 29.3319C76.2517 29.1895 76.2998 29.0768 76.4019 28.976C76.504 28.8751 76.6301 28.8276 76.7803 28.8276C76.9305 28.8276 77.0566 28.8751 77.1588 28.976C77.2609 29.0709 77.3149 29.1895 77.3149 29.326C77.3149 29.4743 77.2669 29.5989 77.1588 29.6998C77.0506 29.8006 76.9305 29.8481 76.7803 29.8481C76.6301 29.8481 76.504 29.8006 76.4019 29.6998V29.6938ZM76.4139 31.005H77.1407V36.3148H76.4139V31.005Z" fill="#002B67"/>
<path d="M84.8296 31.5448C85.226 31.9304 85.4243 32.494 85.4243 33.2356V36.3148H84.6974V33.3068C84.6974 32.7551 84.5593 32.3339 84.2769 32.0431C83.9946 31.7524 83.5982 31.6101 83.0816 31.6101C82.5049 31.6101 82.0424 31.7821 81.706 32.1203C81.3696 32.4584 81.2014 32.9271 81.2014 33.5264V36.3148H80.4745V31.0049H81.1714V31.9838C81.3696 31.6635 81.6459 31.4083 81.9943 31.2304C82.3427 31.0524 82.7512 30.9634 83.2137 30.9634C83.8865 30.9634 84.4271 31.1592 84.8236 31.5448H84.8296Z" fill="#002B67"/>
<path d="M93.6903 31.0049V35.6681C93.6903 36.5699 93.4681 37.2403 93.0236 37.6734C92.579 38.1065 91.9063 38.326 91.0052 38.326C90.5066 38.326 90.0381 38.2548 89.5876 38.1065C89.1431 37.9641 88.7766 37.7624 88.5003 37.5073L88.8668 36.9614C89.1251 37.1928 89.4434 37.3708 89.8098 37.4954C90.1823 37.62 90.5727 37.6852 90.9812 37.6852C91.66 37.6852 92.1646 37.531 92.4829 37.2166C92.8013 36.9021 92.9635 36.4156 92.9635 35.7571V35.0807C92.7412 35.4189 92.4409 35.674 92.0805 35.8461C91.714 36.0241 91.3116 36.1071 90.8671 36.1071C90.3625 36.1071 89.9059 36.0003 89.4915 35.7808C89.077 35.5613 88.7526 35.2587 88.5183 34.8612C88.2841 34.4697 88.1639 34.0247 88.1639 33.5264C88.1639 33.028 88.2841 32.583 88.5183 32.1915C88.7526 31.7999 89.077 31.4973 89.4855 31.2838C89.8939 31.0702 90.3565 30.9634 90.8671 30.9634C91.3236 30.9634 91.7381 31.0524 92.1045 31.2363C92.4709 31.4202 92.7713 31.6812 92.9935 32.0254V31.0049H93.6903ZM91.9964 35.2291C92.3087 35.0629 92.555 34.8316 92.7292 34.5349C92.9034 34.2383 92.9875 33.9001 92.9875 33.5264C92.9875 33.1526 92.9034 32.8144 92.7292 32.5237C92.555 32.233 92.3147 32.0016 92.0024 31.8355C91.69 31.6694 91.3416 31.5863 90.9451 31.5863C90.5487 31.5863 90.2063 31.6694 89.8999 31.8296C89.5936 31.9898 89.3473 32.2211 89.1731 32.5178C88.9989 32.8144 88.9148 33.1526 88.9148 33.5264C88.9148 33.9001 89.0049 34.2383 89.1731 34.5349C89.3473 34.8316 89.5876 35.0629 89.8999 35.2291C90.2123 35.3952 90.5607 35.4782 90.9451 35.4782C91.3296 35.4782 91.684 35.3952 91.9964 35.2291Z" fill="#002B67"/>
<path d="M101.192 29.249H101.949V36.315H101.192V29.249Z" fill="#002B67"/>
<path d="M109.788 31.5448C110.185 31.9304 110.383 32.494 110.383 33.2356V36.3148H109.656V33.3068C109.656 32.7551 109.518 32.3339 109.236 32.0431C108.959 31.7524 108.557 31.6101 108.04 31.6101C107.464 31.6101 107.001 31.7821 106.665 32.1203C106.328 32.4584 106.16 32.9271 106.16 33.5264V36.3148H105.433V31.0049H106.13V31.9838C106.328 31.6635 106.605 31.4083 106.953 31.2304C107.302 31.0524 107.71 30.9634 108.173 30.9634C108.845 30.9634 109.386 31.1592 109.782 31.5448H109.788Z" fill="#002B67"/>
<path d="M118.03 31.5448C118.426 31.9304 118.624 32.494 118.624 33.2356V36.3148H117.898V33.3068C117.898 32.7551 117.759 32.3339 117.477 32.0431C117.201 31.7524 116.798 31.6101 116.282 31.6101C115.705 31.6101 115.242 31.7821 114.906 32.1203C114.57 32.4584 114.402 32.9271 114.402 33.5264V36.3148H113.675V31.0049H114.371V31.9838C114.57 31.6635 114.846 31.4083 115.194 31.2304C115.543 31.0524 115.951 30.9634 116.414 30.9634C117.087 30.9634 117.627 31.1592 118.024 31.5448H118.03Z" fill="#002B67"/>
<path d="M122.715 36.0181C122.301 35.7868 121.971 35.4664 121.736 35.057C121.496 34.6477 121.376 34.1849 121.376 33.6628C121.376 33.1407 121.496 32.678 121.736 32.2686C121.977 31.8592 122.301 31.5389 122.715 31.3075C123.13 31.0761 123.598 30.9634 124.115 30.9634C124.632 30.9634 125.1 31.0761 125.515 31.3075C125.929 31.5389 126.253 31.8533 126.488 32.2686C126.722 32.678 126.842 33.1407 126.842 33.6628C126.842 34.1849 126.722 34.6477 126.488 35.057C126.253 35.4664 125.929 35.7868 125.515 36.0181C125.1 36.2495 124.632 36.3682 124.115 36.3682C123.598 36.3682 123.13 36.2495 122.715 36.0181ZM125.142 35.4723C125.443 35.3003 125.683 35.057 125.851 34.7426C126.019 34.4281 126.109 34.0662 126.109 33.6628C126.109 33.2594 126.025 32.8975 125.851 32.583C125.677 32.2686 125.443 32.0254 125.142 31.8533C124.842 31.6812 124.499 31.5982 124.115 31.5982C123.731 31.5982 123.394 31.6812 123.088 31.8533C122.787 32.0254 122.547 32.2686 122.373 32.583C122.199 32.8975 122.115 33.2594 122.115 33.6628C122.115 34.0662 122.199 34.4281 122.373 34.7426C122.547 35.057 122.787 35.3003 123.088 35.4723C123.388 35.6444 123.731 35.7274 124.115 35.7274C124.499 35.7274 124.836 35.6444 125.142 35.4723Z" fill="#002B67"/>
<path d="M134.159 31.0049L131.768 36.3147H131.023L128.644 31.0049H129.401L131.413 35.5257L133.45 31.0049H134.165H134.159Z" fill="#002B67"/>
<path d="M139.991 31.4853C140.364 31.8294 140.556 32.3456 140.556 33.0219V36.3146H139.859V35.49C139.697 35.7629 139.457 35.9824 139.138 36.1366C138.82 36.2909 138.448 36.368 138.009 36.368C137.408 36.368 136.934 36.2256 136.579 35.9468C136.225 35.6679 136.051 35.2882 136.051 34.8255C136.051 34.3627 136.213 34.0127 136.543 33.7339C136.874 33.4609 137.402 33.3186 138.123 33.3186H139.829V32.9982C139.829 32.5414 139.697 32.1913 139.439 31.954C139.18 31.7167 138.802 31.598 138.303 31.598C137.961 31.598 137.637 31.6514 137.324 31.7642C137.012 31.8769 136.742 32.0311 136.519 32.221L136.195 31.687C136.465 31.4557 136.796 31.2836 137.174 31.159C137.553 31.0344 137.955 30.9751 138.382 30.9751C139.084 30.9751 139.619 31.1471 139.997 31.4972L139.991 31.4853ZM139.174 35.5196C139.469 35.3357 139.685 35.0687 139.829 34.7187V33.8525H138.141C137.222 33.8525 136.76 34.1669 136.76 34.8018C136.76 35.1103 136.88 35.3535 137.12 35.5315C137.36 35.7095 137.691 35.7985 138.123 35.7985C138.556 35.7985 138.88 35.7035 139.174 35.5196Z" fill="#002B67"/>
<path d="M146.677 35.9887C146.539 36.1073 146.371 36.2023 146.173 36.2675C145.974 36.3328 145.764 36.3624 145.542 36.3624C145.037 36.3624 144.647 36.226 144.376 35.959C144.106 35.692 143.968 35.3123 143.968 34.8199V31.6103H143.007V31.0051H143.968V29.8423H144.695V31.0051H146.329V31.6103H144.695V34.7784C144.695 35.0928 144.773 35.3361 144.935 35.5022C145.097 35.6683 145.326 35.7514 145.626 35.7514C145.776 35.7514 145.92 35.7276 146.058 35.6802C146.197 35.6327 146.317 35.5674 146.419 35.4785L146.677 35.9946V35.9887Z" fill="#002B67"/>
<path d="M149.303 29.6938C149.2 29.593 149.146 29.4743 149.146 29.3319C149.146 29.1895 149.2 29.0768 149.303 28.976C149.405 28.8751 149.531 28.8276 149.681 28.8276C149.831 28.8276 149.957 28.8751 150.059 28.976C150.162 29.0709 150.216 29.1895 150.216 29.326C150.216 29.4743 150.168 29.5989 150.059 29.6998C149.951 29.8006 149.831 29.8481 149.681 29.8481C149.531 29.8481 149.405 29.8006 149.303 29.6998V29.6938ZM149.315 31.005H150.041V36.3148H149.315V31.005Z" fill="#002B67"/>
<path d="M154.173 36.0181C153.759 35.7868 153.429 35.4664 153.194 35.057C152.954 34.6477 152.834 34.1849 152.834 33.6628C152.834 33.1407 152.954 32.678 153.194 32.2686C153.435 31.8592 153.759 31.5389 154.173 31.3075C154.588 31.0761 155.056 30.9634 155.573 30.9634C156.09 30.9634 156.558 31.0761 156.973 31.3075C157.387 31.5389 157.712 31.8533 157.946 32.2686C158.18 32.678 158.3 33.1407 158.3 33.6628C158.3 34.1849 158.18 34.6477 157.946 35.057C157.712 35.4664 157.387 35.7868 156.973 36.0181C156.558 36.2495 156.09 36.3682 155.573 36.3682C155.056 36.3682 154.588 36.2495 154.173 36.0181ZM156.6 35.4723C156.901 35.3003 157.141 35.057 157.309 34.7426C157.477 34.4281 157.567 34.0662 157.567 33.6628C157.567 33.2594 157.483 32.8975 157.309 32.583C157.135 32.2686 156.901 32.0254 156.6 31.8533C156.3 31.6812 155.957 31.5982 155.573 31.5982C155.189 31.5982 154.852 31.6812 154.546 31.8533C154.245 32.0254 154.005 32.2686 153.831 32.583C153.657 32.8975 153.573 33.2594 153.573 33.6628C153.573 34.0662 153.657 34.4281 153.831 34.7426C154.005 35.057 154.245 35.3003 154.546 35.4723C154.846 35.6444 155.189 35.7274 155.573 35.7274C155.957 35.7274 156.294 35.6444 156.6 35.4723Z" fill="#002B67"/>
<path d="M165.455 31.5448C165.851 31.9304 166.049 32.494 166.049 33.2356V36.3148H165.322V33.3068C165.322 32.7551 165.184 32.3339 164.902 32.0431C164.626 31.7524 164.223 31.6101 163.706 31.6101C163.13 31.6101 162.667 31.7821 162.331 32.1203C161.995 32.4584 161.826 32.9271 161.826 33.5264V36.3148H161.099V31.0049H161.796V31.9838C161.995 31.6635 162.271 31.4083 162.619 31.2304C162.968 31.0524 163.376 30.9634 163.839 30.9634C164.511 30.9634 165.052 31.1592 165.449 31.5448H165.455Z" fill="#002B67"/>
<path d="M169.528 36.1787C169.131 36.0541 168.819 35.8999 168.591 35.71L168.915 35.1464C169.137 35.3244 169.426 35.4668 169.762 35.5736C170.104 35.6863 170.459 35.7397 170.825 35.7397C171.318 35.7397 171.678 35.6626 171.913 35.5143C172.147 35.3659 172.267 35.1464 172.267 34.8735C172.267 34.6777 172.201 34.5235 172.075 34.4167C171.949 34.3099 171.78 34.2209 171.582 34.1616C171.384 34.1022 171.12 34.0489 170.795 33.9955C170.357 33.9124 170.008 33.8353 169.744 33.7463C169.48 33.6632 169.251 33.5208 169.065 33.3191C168.879 33.1174 168.783 32.8386 168.783 32.4826C168.783 32.0376 168.969 31.6757 169.348 31.391C169.72 31.1062 170.243 30.9697 170.909 30.9697C171.258 30.9697 171.606 31.0172 171.955 31.1062C172.303 31.1952 172.591 31.3198 172.814 31.4621L172.495 32.0376C172.051 31.7351 171.522 31.5808 170.909 31.5808C170.447 31.5808 170.098 31.6639 169.864 31.824C169.63 31.9842 169.51 32.1978 169.51 32.4589C169.51 32.6606 169.576 32.8208 169.708 32.9453C169.84 33.0699 170.008 33.153 170.201 33.2123C170.393 33.2717 170.669 33.331 171.018 33.3903C171.444 33.4734 171.792 33.5505 172.051 33.6336C172.309 33.7166 172.531 33.8531 172.717 34.0489C172.904 34.2446 172.994 34.5116 172.994 34.8557C172.994 35.3185 172.796 35.6863 172.405 35.9592C172.015 36.2321 171.468 36.3686 170.777 36.3686C170.339 36.3686 169.924 36.3093 169.528 36.1847V36.1787Z" fill="#002B67"/>
<path d="M52.1162 22.7051C51.017 22.7051 49.9898 22.4974 49.0347 22.0821C48.0796 21.6668 47.2386 21.0854 46.5118 20.3438C45.7849 19.6022 45.2203 18.742 44.8118 17.7749C44.4033 16.8019 44.1991 15.7637 44.1991 14.6483C44.1991 13.533 44.3973 12.5184 44.7998 11.5455C45.2023 10.5725 45.7609 9.71816 46.4877 8.9825C47.2146 8.24683 48.0556 7.66541 49.0107 7.24418C49.9658 6.82296 50.999 6.60938 52.1102 6.60938C53.0894 6.60938 53.9724 6.75176 54.7773 7.0306C55.5762 7.30945 56.3511 7.76034 57.096 8.37735C57.2161 8.47228 57.2882 8.57907 57.3123 8.70959C57.3303 8.83418 57.3123 8.95877 57.2642 9.07149C57.2101 9.18421 57.126 9.26727 57.0179 9.32067C56.9879 9.42746 56.9218 9.51052 56.8137 9.56391C56.7056 9.61731 56.5794 9.6351 56.4352 9.62324C56.2911 9.61137 56.1529 9.55205 56.0208 9.44526C55.4922 8.98843 54.9155 8.65026 54.2908 8.43075C53.666 8.21123 52.9392 8.09851 52.1162 8.09851C51.2332 8.09851 50.4103 8.27056 49.6474 8.6206C48.8785 8.97063 48.2057 9.44526 47.6231 10.0445C47.0404 10.6437 46.5839 11.3438 46.2475 12.1328C45.9171 12.9219 45.7489 13.7584 45.7489 14.6424C45.7489 15.5264 45.9171 16.4044 46.2475 17.1935C46.5778 17.9826 47.0404 18.6826 47.6231 19.2818C48.2057 19.8811 48.8785 20.3557 49.6474 20.6998C50.4103 21.0439 51.2392 21.21 52.1162 21.21C52.8611 21.21 53.5699 21.0914 54.2307 20.8481C54.8915 20.6049 55.5282 20.2608 56.1229 19.8039C56.2851 19.6675 56.4593 19.6141 56.6395 19.6437C56.8197 19.6734 56.9819 19.7505 57.12 19.887C57.2582 20.0234 57.3243 20.1955 57.3243 20.4091C57.3243 20.5159 57.3062 20.6108 57.2762 20.6998C57.2402 20.7888 57.1861 20.8778 57.102 20.9727C56.4112 21.6016 55.6363 22.0465 54.7833 22.3076C53.9303 22.5686 53.0413 22.6991 52.1162 22.6991V22.7051Z" fill="#002B67"/>
<path d="M65.0489 22.6043C63.9616 22.6043 62.9945 22.3611 62.1415 21.8805C61.2885 21.4 60.6158 20.7355 60.1292 19.893C59.6426 19.0506 59.3964 18.0894 59.3964 17.0215C59.3964 15.9536 59.6426 14.9747 60.1292 14.1263C60.6158 13.2839 61.2885 12.6194 62.1415 12.1388C62.9945 11.6583 63.9676 11.415 65.0489 11.415C66.1301 11.415 67.0973 11.6583 67.9442 12.1388C68.7912 12.6194 69.458 13.2839 69.9446 14.1263C70.4311 14.9688 70.6834 15.9358 70.6954 17.0215C70.6954 18.0954 70.4491 19.0506 69.9506 19.893C69.458 20.7355 68.7852 21.4 67.9382 21.8805C67.0913 22.3611 66.1241 22.6043 65.0429 22.6043H65.0489ZM65.0489 21.1982C65.8358 21.1982 66.5386 21.0203 67.1633 20.6583C67.7881 20.2964 68.2746 19.804 68.629 19.1692C68.9834 18.5403 69.1576 17.8225 69.1576 17.0215C69.1576 16.2206 68.9834 15.4968 68.629 14.862C68.2746 14.2272 67.7881 13.7288 67.1633 13.3669C66.5386 13.005 65.8358 12.827 65.0489 12.827C64.262 12.827 63.5592 13.005 62.9345 13.3669C62.3097 13.7288 61.8172 14.2272 61.4567 14.862C61.0963 15.4968 60.9161 16.2206 60.9161 17.0215C60.9161 17.8225 61.0963 18.5403 61.4567 19.1692C61.8172 19.7981 62.3097 20.2964 62.9345 20.6583C63.5592 21.0203 64.262 21.1982 65.0489 21.1982Z" fill="#002B67"/>
<path d="M72.6784 13.2604C72.4622 13.2604 72.288 13.1951 72.1618 13.0706C72.0357 12.946 71.9696 12.7858 71.9696 12.5959C71.9696 12.3942 72.0357 12.234 72.1618 12.1035C72.288 11.9789 72.4622 11.9137 72.6784 11.9137H77.9886C78.2048 11.9137 78.379 11.9789 78.5052 12.1035C78.6313 12.2281 78.6974 12.3942 78.6974 12.5959C78.6974 12.7858 78.6313 12.94 78.5052 13.0706C78.379 13.1951 78.2048 13.2604 77.9886 13.2604H72.6784ZM74.7328 22.5037C74.5286 22.5037 74.3544 22.4325 74.2042 22.2901C74.054 22.1478 73.9819 21.9579 73.9819 21.7206V11.534C73.9819 10.5966 74.1441 9.77192 74.4685 9.06592C74.7929 8.35398 75.2734 7.80223 75.9102 7.41066C76.5469 7.01317 77.3278 6.81738 78.2469 6.81738C78.4751 6.81738 78.6674 6.88264 78.8175 7.0191C78.9677 7.15555 79.0398 7.32167 79.0398 7.52339C79.0398 7.7251 78.9677 7.89122 78.8175 8.02768C78.6674 8.16413 78.4811 8.22939 78.2469 8.22939C77.6342 8.22939 77.1296 8.36585 76.7331 8.63875C76.3306 8.91166 76.0363 9.2973 75.8381 9.78379C75.6398 10.2703 75.5437 10.8339 75.5437 11.4628V21.7265C75.5437 21.9698 75.4717 22.1596 75.3275 22.2961C75.1833 22.4385 74.9851 22.5097 74.7268 22.5097L74.7328 22.5037ZM80.121 13.2604C79.9048 13.2604 79.7306 13.1951 79.6044 13.0706C79.4783 12.946 79.4122 12.7858 79.4122 12.5959C79.4122 12.3942 79.4783 12.234 79.6044 12.1035C79.7306 11.9789 79.9048 11.9137 80.121 11.9137H85.4312C85.6474 11.9137 85.8216 11.9789 85.9478 12.1035C86.0739 12.2281 86.14 12.3942 86.14 12.5959C86.14 12.7858 86.0739 12.94 85.9478 13.0706C85.8216 13.1951 85.6474 13.2604 85.4312 13.2604H80.121ZM82.1754 22.5037C81.9712 22.5037 81.797 22.4325 81.6468 22.2901C81.4966 22.1478 81.4245 21.9579 81.4245 21.7206V11.534C81.4245 10.5966 81.5867 9.77192 81.9111 9.06592C82.2355 8.35398 82.716 7.80223 83.3528 7.41066C83.9895 7.01317 84.7704 6.81738 85.6895 6.81738C85.9177 6.81738 86.11 6.88264 86.2601 7.0191C86.4103 7.15555 86.4824 7.32167 86.4824 7.52339C86.4824 7.7251 86.4103 7.89122 86.2601 8.02768C86.11 8.16413 85.9237 8.22939 85.6895 8.22939C85.0768 8.22939 84.5722 8.36585 84.1757 8.63875C83.7733 8.91166 83.4789 9.2973 83.2807 9.78379C83.0825 10.2703 82.9863 10.8339 82.9863 11.4628V21.7265C82.9863 21.9698 82.9143 22.1596 82.7701 22.2961C82.6259 22.4385 82.4277 22.5097 82.1694 22.5097L82.1754 22.5037Z" fill="#002B67"/>
<path d="M92.8737 22.6044C91.7744 22.6044 90.8013 22.3671 89.9543 21.8924C89.1073 21.4178 88.4405 20.7593 87.96 19.9109C87.4794 19.0625 87.2391 18.1014 87.2391 17.0157C87.2391 15.93 87.4674 14.9511 87.9179 14.1145C88.3745 13.278 88.9992 12.6195 89.7981 12.133C90.597 11.6524 91.5221 11.4092 92.5673 11.4092C93.6125 11.4092 94.4955 11.6406 95.2644 12.1033C96.0273 12.5661 96.622 13.2068 97.0425 14.0196C97.463 14.8383 97.6732 15.7698 97.6732 16.814C97.6732 17.0275 97.6071 17.1996 97.469 17.3242C97.3308 17.4488 97.1566 17.514 96.9404 17.514H88.2964V16.2266H97.1025L96.2255 16.8496C96.2375 16.0724 96.0994 15.3782 95.799 14.7612C95.4987 14.1442 95.0782 13.6636 94.5256 13.3136C93.9789 12.9636 93.3242 12.7915 92.5613 12.7915C91.7984 12.7915 91.1076 12.9695 90.5249 13.3314C89.9423 13.6933 89.4917 14.1917 89.1734 14.8265C88.855 15.4613 88.6928 16.191 88.6928 17.0038C88.6928 17.8166 88.873 18.5463 89.2334 19.1752C89.5939 19.8041 90.0864 20.3025 90.7051 20.6644C91.3299 21.0263 92.0507 21.2042 92.8616 21.2042C93.3482 21.2042 93.8408 21.1212 94.3333 20.9551C94.8259 20.7889 95.2224 20.5754 95.5227 20.3203C95.6729 20.2016 95.8411 20.1363 96.0333 20.1304C96.2255 20.1245 96.3877 20.1719 96.5199 20.2787C96.6941 20.4389 96.7842 20.611 96.7962 20.8008C96.8022 20.9907 96.7241 21.1508 96.5619 21.2814C96.1114 21.6551 95.5467 21.9696 94.8559 22.2128C94.1651 22.462 93.4984 22.5866 92.8616 22.5866L92.8737 22.6044Z" fill="#002B67"/>
<path d="M104.954 22.6044C103.854 22.6044 102.881 22.3671 102.034 21.8924C101.187 21.4178 100.521 20.7593 100.04 19.9109C99.5595 19.0684 99.3192 18.1014 99.3192 17.0157C99.3192 15.93 99.5475 14.9511 99.998 14.1145C100.455 13.278 101.079 12.6195 101.878 12.133C102.677 11.6524 103.602 11.4092 104.647 11.4092C105.693 11.4092 106.576 11.6406 107.344 12.1033C108.107 12.5661 108.702 13.2068 109.123 14.0196C109.543 14.8383 109.753 15.7698 109.753 16.814C109.753 17.0275 109.687 17.1996 109.549 17.3242C109.411 17.4488 109.237 17.514 109.02 17.514H100.376V16.2266H109.183L108.306 16.8496C108.318 16.0724 108.179 15.3782 107.879 14.7612C107.579 14.1442 107.158 13.6636 106.606 13.3136C106.059 12.9636 105.404 12.7915 104.641 12.7915C103.878 12.7915 103.188 12.9695 102.605 13.3314C102.022 13.6933 101.572 14.1917 101.253 14.8265C100.935 15.4613 100.773 16.191 100.773 17.0038C100.773 17.8166 100.953 18.5463 101.314 19.1752C101.674 19.8041 102.167 20.3025 102.785 20.6644C103.404 21.0263 104.131 21.2042 104.942 21.2042C105.428 21.2042 105.921 21.1212 106.413 20.9551C106.906 20.7889 107.302 20.5754 107.603 20.3203C107.753 20.2016 107.921 20.1363 108.113 20.1304C108.306 20.1245 108.468 20.1719 108.6 20.2787C108.774 20.4389 108.87 20.611 108.876 20.8008C108.882 20.9907 108.804 21.1508 108.642 21.2814C108.191 21.6551 107.627 21.9696 106.936 22.2128C106.245 22.462 105.578 22.5866 104.942 22.5866L104.954 22.6044Z" fill="#002B67"/>
<path d="M113.093 22.5037C112.835 22.5037 112.619 22.4325 112.45 22.2901C112.282 22.1478 112.198 21.9579 112.198 21.7206V7.60051C112.198 7.37507 112.27 7.18522 112.42 7.0369C112.571 6.88858 112.757 6.81738 112.991 6.81738H117.935C118.746 6.81738 119.485 6.98943 120.139 7.3276C120.794 7.67171 121.317 8.13447 121.707 8.72181C122.092 9.30916 122.284 9.99143 122.284 10.7686C122.284 11.4924 122.086 12.1332 121.695 12.6968C121.305 13.2604 120.788 13.6876 120.151 13.9842C121.058 14.2275 121.791 14.6784 122.35 15.3428C122.908 16.0073 123.185 16.8438 123.185 17.8643C123.185 18.7779 122.975 19.5788 122.554 20.273C122.134 20.9671 121.551 21.5129 120.818 21.9104C120.079 22.3079 119.232 22.5037 118.283 22.5037H113.099H113.093ZM113.784 13.3613H117.935C118.746 13.3613 119.418 13.1358 119.947 12.679C120.476 12.2222 120.74 11.5874 120.74 10.7686C120.74 9.9499 120.476 9.35662 119.947 8.94133C119.418 8.52603 118.746 8.31838 117.935 8.31838H113.784V13.3613ZM113.784 20.9968H118.277C118.926 20.9968 119.503 20.8722 120.007 20.6171C120.506 20.362 120.902 20.0001 121.185 19.5314C121.467 19.0627 121.611 18.505 121.611 17.8643C121.611 17.2591 121.467 16.737 121.185 16.2861C120.902 15.8352 120.506 15.4911 120.007 15.242C119.503 14.9928 118.932 14.8682 118.277 14.8682H113.784V20.9968Z" fill="#002B67"/>
<path d="M130.765 22.6044C129.666 22.6044 128.693 22.3671 127.846 21.8924C126.999 21.4178 126.332 20.7593 125.852 19.9109C125.371 19.0684 125.131 18.1014 125.131 17.0157C125.131 15.93 125.359 14.9511 125.809 14.1145C126.266 13.278 126.891 12.6195 127.69 12.133C128.489 11.6524 129.414 11.4092 130.459 11.4092C131.504 11.4092 132.387 11.6406 133.156 12.1033C133.919 12.5661 134.514 13.2068 134.934 14.0196C135.355 14.8383 135.565 15.7698 135.565 16.814C135.565 17.0275 135.499 17.1996 135.361 17.3242C135.222 17.4488 135.048 17.514 134.832 17.514H126.188V16.2266H134.994L134.117 16.8496C134.129 16.0724 133.991 15.3782 133.691 14.7612C133.39 14.1442 132.97 13.6636 132.417 13.3136C131.87 12.9636 131.216 12.7915 130.453 12.7915C129.69 12.7915 128.999 12.9695 128.416 13.3314C127.834 13.6933 127.383 14.1917 127.065 14.8265C126.747 15.4613 126.584 16.191 126.584 17.0038C126.584 17.8166 126.765 18.5463 127.125 19.1752C127.485 19.8041 127.978 20.3025 128.597 20.6644C129.215 21.0263 129.942 21.2042 130.753 21.2042C131.24 21.2042 131.732 21.1212 132.225 20.9551C132.717 20.7889 133.114 20.5754 133.414 20.3203C133.564 20.2016 133.733 20.1363 133.925 20.1304C134.117 20.1245 134.279 20.1719 134.411 20.2787C134.586 20.4389 134.682 20.611 134.688 20.8008C134.694 20.9907 134.616 21.1508 134.453 21.2814C134.003 21.6551 133.438 21.9696 132.747 22.2128C132.057 22.462 131.39 22.5866 130.753 22.5866L130.765 22.6044Z" fill="#002B67"/>
<path d="M142.707 22.6044C141.662 22.6044 140.725 22.3611 139.902 21.8687C139.073 21.3822 138.418 20.7118 137.937 19.8694C137.457 19.0269 137.217 18.0777 137.217 17.0157C137.217 15.9537 137.463 14.9867 137.961 14.1442C138.454 13.3017 139.133 12.6373 139.986 12.1448C140.839 11.6584 141.8 11.4092 142.875 11.4092C143.95 11.4092 144.906 11.6524 145.752 12.1448C146.599 12.6313 147.272 13.3017 147.765 14.1442C148.257 14.9867 148.516 15.9478 148.528 17.0157L147.897 17.4962C147.897 18.4574 147.669 19.3295 147.218 20.0948C146.762 20.8661 146.149 21.4771 145.368 21.9221C144.587 22.373 143.704 22.5925 142.713 22.5925L142.707 22.6044ZM142.869 21.1983C143.656 21.1983 144.359 21.0203 144.972 20.6584C145.59 20.2965 146.077 19.7982 146.437 19.1634C146.798 18.5285 146.978 17.8166 146.978 17.0216C146.978 16.2266 146.798 15.5028 146.437 14.8739C146.077 14.2451 145.59 13.7467 144.972 13.3789C144.353 13.011 143.65 12.8271 142.869 12.8271C142.088 12.8271 141.397 13.011 140.773 13.3789C140.148 13.7467 139.655 14.2451 139.289 14.8739C138.923 15.5028 138.742 16.2207 138.742 17.0216C138.742 17.8225 138.923 18.5226 139.289 19.1634C139.655 19.7982 140.148 20.2965 140.773 20.6584C141.397 21.0203 142.094 21.1983 142.869 21.1983ZM147.729 22.5035C147.501 22.5035 147.308 22.4323 147.158 22.2899C147.008 22.1476 146.936 21.9636 146.936 21.7382V18.3031L147.32 16.7131L148.522 17.0157V21.7382C148.522 21.9636 148.45 22.1476 148.299 22.2899C148.149 22.4323 147.963 22.5035 147.729 22.5035Z" fill="#002B67"/>
<path d="M151.958 22.5036C151.711 22.5036 151.519 22.4324 151.381 22.29C151.237 22.1476 151.165 21.9637 151.165 21.7383V12.2992C151.165 12.0559 151.237 11.8661 151.381 11.7296C151.525 11.5872 151.717 11.516 151.958 11.516C152.186 11.516 152.372 11.5872 152.516 11.7296C152.66 11.872 152.733 12.0619 152.733 12.2992V21.7383C152.733 21.9637 152.66 22.1476 152.516 22.29C152.372 22.4324 152.186 22.5036 151.958 22.5036ZM160.704 22.5036C160.476 22.5036 160.283 22.4324 160.133 22.2841C159.983 22.1358 159.911 21.9578 159.911 21.7442V16.5233C159.911 15.6927 159.749 15.0105 159.43 14.4765C159.112 13.9426 158.679 13.5391 158.127 13.2722C157.58 13.0052 156.955 12.8687 156.265 12.8687C155.574 12.8687 154.997 12.9933 154.463 13.2484C153.928 13.5035 153.501 13.8536 153.189 14.2926C152.877 14.7316 152.721 15.2359 152.721 15.7995H151.603C151.627 14.9571 151.862 14.2036 152.294 13.5391C152.727 12.8747 153.303 12.3526 154.024 11.9729C154.745 11.5932 155.544 11.4033 156.427 11.4033C157.388 11.4033 158.253 11.5991 159.01 11.9966C159.767 12.3941 160.367 12.9696 160.812 13.7349C161.25 14.5002 161.473 15.4317 161.473 16.5293V21.7501C161.473 21.9637 161.401 22.1476 161.25 22.29C161.1 22.4383 160.92 22.5095 160.704 22.5095V22.5036Z" fill="#002B67"/>
<path d="M168.411 22.6043C167.612 22.6043 166.819 22.4679 166.032 22.2009C165.245 21.9339 164.609 21.5305 164.122 20.9965C163.972 20.8363 163.912 20.6524 163.942 20.4566C163.972 20.2549 164.068 20.0829 164.248 19.9345C164.441 19.7981 164.633 19.7447 164.837 19.7744C165.041 19.804 165.209 19.8871 165.348 20.0354C165.672 20.4092 166.104 20.6999 166.639 20.9016C167.174 21.1033 167.768 21.2042 168.417 21.2042C169.42 21.2042 170.147 21.0321 170.592 20.6939C171.042 20.3498 171.27 19.9405 171.282 19.4599C171.282 18.9794 171.054 18.5819 170.592 18.2674C170.129 17.953 169.372 17.7097 168.315 17.5318C166.945 17.3182 165.942 16.9444 165.306 16.4045C164.669 15.8706 164.35 15.2358 164.35 14.4942C164.35 13.8119 164.531 13.2423 164.897 12.7855C165.263 12.3287 165.75 11.9905 166.363 11.7591C166.975 11.5337 167.642 11.415 168.375 11.415C169.282 11.415 170.069 11.5693 170.724 11.8778C171.379 12.1863 171.913 12.6016 172.322 13.1237C172.46 13.2957 172.514 13.4797 172.484 13.6636C172.454 13.8534 172.346 14.0077 172.159 14.1263C171.997 14.2213 171.811 14.2509 171.601 14.2153C171.391 14.1797 171.21 14.0848 171.06 13.9246C170.724 13.539 170.327 13.2542 169.883 13.0703C169.438 12.8923 168.922 12.7974 168.339 12.7974C167.594 12.7974 166.993 12.9457 166.549 13.2483C166.098 13.5508 165.876 13.9305 165.876 14.3814C165.876 14.6899 165.96 14.9569 166.128 15.1824C166.297 15.4078 166.591 15.6095 167.005 15.7875C167.42 15.9596 167.997 16.1079 168.748 16.2265C169.763 16.3867 170.568 16.624 171.156 16.9385C171.745 17.2529 172.165 17.6208 172.418 18.042C172.67 18.4632 172.796 18.92 172.796 19.4184C172.796 20.0473 172.61 20.599 172.238 21.0736C171.865 21.5483 171.349 21.922 170.694 22.189C170.039 22.456 169.282 22.5924 168.429 22.5924L168.411 22.6043Z" fill="#002B67"/>
</g>
<defs>
<clipPath id="clip0_1_1359">
<rect width="173" height="44.9351" fill="white"/>
</clipPath>
</defs>
</svg>