<svg width="544" height="129" viewBox="0 0 544 129" fill="none" xmlns="http://www.w3.org/2000/svg">
<path d="M350.159 66.4419C350.683 66.4419 351.106 66.8676 351.106 67.3951C351.106 67.9226 350.683 68.3483 350.159 68.3483C349.634 68.3483 349.211 67.9226 349.211 67.3951C349.211 66.8768 349.634 66.4419 350.159 66.4419ZM350.159 68.1354C350.554 68.1354 350.858 67.8115 350.858 67.3951C350.858 66.9786 350.554 66.6547 350.159 66.6547C349.763 66.6547 349.46 66.9786 349.46 67.3951C349.46 67.8115 349.763 68.1354 350.159 68.1354ZM350.637 67.5432C350.6 67.8023 350.407 67.9411 350.186 67.9411C349.864 67.9411 349.68 67.7005 349.68 67.3951C349.68 67.0804 349.855 66.8583 350.177 66.8583C350.407 66.8583 350.6 66.9786 350.637 67.2285H350.398C350.379 67.1082 350.287 67.0712 350.195 67.0712C350.002 67.0712 349.919 67.2007 349.919 67.3858C349.919 67.5709 350.011 67.7282 350.195 67.7282C350.306 67.7282 350.388 67.682 350.398 67.5524H350.637V67.5432Z" fill="#FF6756"/>
<g clip-path="url(#clip0_331_222)">
<path d="M504.959 38.5739C494.839 38.5739 486.114 45.0214 481.883 54.3833C477.652 45.0214 468.928 38.5739 458.807 38.5739C450.519 38.5739 443.147 42.9017 438.436 49.6582V38.5739H419.33V65.5559C419.112 70.5902 403.583 84.8981 381.03 84.8981C380.725 84.8981 380.42 84.8981 380.114 84.8981C378.806 84.8981 378.282 83.1759 379.329 82.4252C388.489 75.8894 395.6 70.6785 404.542 63.657C408.294 60.6983 408.686 55.5757 406.985 52.352C404.237 47.1411 399.875 42.8575 394.945 39.6338C388.402 35.3944 380.507 33.7163 372.698 33.7163C353.898 33.7163 335.707 44.0057 327.201 58.976C326.329 60.4775 324.06 59.9034 324.06 58.137V38.5739H304.954V95.7174H324.06V82.9109C324.06 73.1957 330.516 67.234 338.107 62.288C339.459 61.4048 341.553 60.2125 343.079 59.5943L343.123 59.5501C344.301 58.7994 345.697 60.1242 344.999 61.3607C343.123 64.8052 341.64 69.707 341.64 76.7726C341.64 83.8383 348.968 101.149 376.319 101.149C397.388 101.149 411.653 92.1404 417.105 83.6175C417.76 82.6018 419.286 83.0434 419.286 84.2799V95.7616H438.393V67.1457C438.393 60.5658 444.456 55.2224 451.915 55.2224C459.374 55.2224 465.438 60.5658 465.438 67.1457V95.7174H484.588V67.3223C484.588 67.2782 484.588 67.234 484.588 67.1457C484.588 67.1015 484.588 67.0574 484.588 66.969C484.675 60.4775 490.695 55.2224 498.11 55.2224C505.57 55.2224 511.633 60.5658 511.633 67.1457V95.7174H530.739V67.1457C530.739 51.3804 519.223 38.5739 504.959 38.5739ZM354.77 66.0417C357.082 55.0016 366.461 49.9673 369.689 49.9673C370.736 49.9673 371.521 50.8505 371.128 51.822L358.521 77.1259C358.129 78.1858 356.646 78.3182 356.079 77.3026C353.636 72.9307 354.334 68.0731 354.77 66.0417ZM364.498 82.2927C368.729 72.4891 376.973 62.5972 382.077 53.0144C382.426 52.352 383.255 52.1312 383.909 52.4845C385.785 53.5443 387.268 54.3833 388.402 55.3107C390.801 57.3421 390.801 60.7866 388.533 62.9063C381.466 69.3979 369.689 80.6587 366.286 83.3525C365.632 83.8825 364.585 83.5292 364.454 82.646C364.454 82.5576 364.454 82.4252 364.498 82.2927Z" fill="#FF6756"/>
<path d="M218.54 38.5742V55.4435L189.401 55.2668C181.941 55.2668 175.878 60.6102 175.878 67.1901C175.878 73.77 181.941 79.1134 189.401 79.1134H218.54V95.806H188.746C170.731 95.806 156.117 82.9995 156.117 67.2343C156.117 51.3807 170.731 38.5742 188.746 38.5742H218.54Z" fill="#FF6756"/>
<path d="M293.482 38.5742V67.146C293.482 82.9554 278.869 95.7177 260.854 95.7177C242.838 95.7177 228.225 82.9112 228.225 67.146V38.5742H247.331V67.146C247.331 73.7259 253.394 79.0693 260.854 79.0693C268.313 79.0693 274.376 73.7259 274.376 67.146V38.5742H293.482Z" fill="#FF6756"/>
<path d="M539.506 86.6206C541.993 86.6206 543.999 88.652 543.999 91.1691C543.999 93.6863 541.993 95.7176 539.506 95.7176C537.02 95.7176 535.013 93.6863 535.013 91.1691C535.013 88.6961 537.02 86.6206 539.506 86.6206ZM539.506 94.702C541.382 94.702 542.822 93.1563 542.822 91.1691C542.822 89.1819 541.382 87.6363 539.506 87.6363C537.631 87.6363 536.191 89.1819 536.191 91.1691C536.191 93.1563 537.631 94.702 539.506 94.702ZM541.775 91.8757C541.6 93.1122 540.684 93.7746 539.637 93.7746C538.111 93.7746 537.238 92.6264 537.238 91.1691C537.238 89.6677 538.067 88.6078 539.594 88.6078C540.684 88.6078 541.6 89.1819 541.775 90.3742H540.641C540.553 89.8002 540.117 89.6235 539.681 89.6235C538.765 89.6235 538.372 90.2418 538.372 91.125C538.372 92.0082 538.809 92.7589 539.681 92.7589C540.204 92.7589 540.597 92.5381 540.641 91.9199H541.775V91.8757Z" fill="#FF6756"/>
</g>
<g clip-path="url(#clip1_331_222)">
<path d="M64.357 128.714C99.9004 128.714 128.714 99.9004 128.714 64.357C128.714 28.8136 99.9004 0 64.357 0C28.8136 0 0 28.8136 0 64.357C0 99.9004 28.8136 128.714 64.357 128.714Z" fill="#FF6756"/>
<path d="M77.9506 113.579H86.1474V99.4979H66.1424C62.4092 99.3356 51.8182 87.8925 51.8182 71.2149C51.8182 70.9714 51.8182 70.7685 51.8182 70.525C51.8182 69.5512 53.0762 69.186 53.6443 69.957C58.5137 76.6929 62.328 81.9681 67.5626 88.5418C69.7538 91.3011 73.5682 91.5851 75.9623 90.3272C79.8172 88.2983 83.0229 85.0926 85.3764 81.4406C88.5415 76.6118 89.7589 70.7685 89.7589 65.047C89.7589 51.1692 82.1302 37.7379 71.0523 31.4888C69.9161 30.8396 70.3625 29.1759 71.661 29.1759H86.1474V15.0952H43.7838V29.2164H53.2791C60.4614 29.2164 64.8844 33.9641 68.577 39.5639C69.2263 40.5783 70.119 42.1203 70.606 43.2565C70.606 43.2565 70.606 43.2971 70.6465 43.2971C71.2146 44.1492 70.2002 45.1637 69.3075 44.6767C66.751 43.2971 63.1396 42.2015 57.8644 42.2015C52.6298 42.2015 39.8071 47.5984 39.8071 67.8063C39.8071 83.3478 46.4619 93.8575 52.8327 97.8748C53.6037 98.3617 53.2385 99.4979 52.3458 99.4979H43.8243V113.579H65.0062H77.9506ZM65.7772 51.8591C73.9739 53.5634 77.7071 60.4617 77.7071 62.8558C77.7071 63.6268 77.0579 64.1948 76.3275 63.9108L57.5804 54.6184C56.7688 54.3343 56.6876 53.2387 57.4586 52.8329C60.7049 51.0475 64.2758 51.575 65.7772 51.8591ZM53.7254 59.082C60.9889 62.2065 68.3336 68.2932 75.4348 72.0264C75.9217 72.2699 76.084 72.8786 75.8405 73.3655C75.0696 74.7452 74.4203 75.8408 73.7305 76.6929C72.2291 78.4784 69.6727 78.4784 68.0901 76.7741C63.2613 71.5801 54.9022 62.8558 52.9544 60.3805C52.5487 59.8936 52.8327 59.1226 53.482 59.0414C53.5631 59.0008 53.6443 59.0414 53.7254 59.082Z" fill="white" stroke="#FF6756" stroke-miterlimit="10"/>
</g>
<defs>
<clipPath id="clip0_331_222">
<rect width="387.883" height="67.4328" fill="white" transform="translate(156.117 33.7163)"/>
</clipPath>
<clipPath id="clip1_331_222">
<rect width="128.674" height="128.674" fill="white"/>
</clipPath>
</defs>
</svg>