<svg xmlns="http://www.w3.org/2000/svg" id="Layer_1" width="576" height="576" data-name="Layer 1" viewBox="0 0 576 576"><defs><style>.cls-1{fill:#fff}</style></defs><rect width="576" height="576" class="cls-1"/><g><rect width="62.222" height="8.889" x="128" y="342.95"/><rect width="62.222" height="8.889" x="128" y="325.98"/><rect width="26.667" height="8.889" x="145.778" y="309.01"/><rect width="26.667" height="8.889" x="145.778" y="292.04"/><rect width="26.667" height="8.889" x="145.778" y="275.071"/><rect width="26.667" height="8.889" x="145.778" y="258.101"/><rect width="62.222" height="8.889" x="128" y="241.131"/><rect width="62.222" height="8.889" x="128" y="224.162"/><path d="M199.1112,334.8686h94.842a33.7121,33.7121,0,0,0,3.576-8.8889h-98.418Z"/><path d="M286.5286,292.04h-69.64v8.8888h77.0547A34.0754,34.0754,0,0,0,286.5286,292.04Z"/><path d="M216.8889,275.0706V283.96h69.64a34.0774,34.0774,0,0,0,7.415-8.8889Z"/><path d="M293.9532,241.1313h-94.842V250.02h98.418A33.7148,33.7148,0,0,0,293.9532,241.1313Z"/><path d="M264.5656,224.1617H199.1112v8.8888h88.35A33.8138,33.8138,0,0,0,264.5656,224.1617Z"/><rect width="26.667" height="8.889" x="216.889" y="258.101"/><path d="M268.6061,266.99h28.71a33.9492,33.9492,0,0,0,1.189-8.8889h-29.899Z"/><rect width="26.667" height="8.889" x="216.889" y="309.01"/><path d="M268.6061,309.01v8.889h29.899a33.9488,33.9488,0,0,0-1.189-8.889Z"/><path d="M199.1112,351.75l65.4544.0879a33.6926,33.6926,0,0,0,22.8959-8.8888h-88.35Z"/><polygon points="376.875 351.838 379.979 342.949 373.799 342.949 376.875 351.838"/><polygon points="370.962 334.869 382.816 334.869 385.936 325.98 367.842 325.98 370.962 334.869"/><polygon points="365.005 317.899 388.773 317.899 391.894 309.01 361.884 309.01 365.005 317.899"/><polygon points="359.047 300.929 394.731 300.929 397.851 292.04 355.927 292.04 359.047 300.929"/><polygon points="323.556 266.99 371.58 266.99 368.489 258.101 323.556 258.101 323.556 266.99"/><polygon points="388.099 250.02 448 250.02 448 241.131 391.19 241.131 388.099 250.02"/><polygon points="397.091 224.162 394 233.051 448 233.051 448 224.162 397.091 224.162"/><rect width="44.444" height="8.889" x="305.778" y="342.95"/><rect width="44.444" height="8.889" x="305.778" y="325.98"/><rect width="26.667" height="8.889" x="323.556" y="309.01"/><rect width="26.667" height="8.889" x="323.556" y="292.04"/><polygon points="430.222 258.101 385.289 258.101 382.198 266.99 430.222 266.99 430.222 258.101"/><polygon points="403.556 283.96 430.222 283.96 430.222 275.071 403.556 275.071 403.556 275.071 379.387 275.071 376.889 282.256 374.39 275.071 350.222 275.071 323.556 275.071 323.556 283.96 350.222 283.96 350.222 275.791 353.09 283.96 400.688 283.96 403.556 275.792 403.556 283.96"/><rect width="26.667" height="8.889" x="403.555" y="292.04"/><rect width="26.667" height="8.889" x="403.555" y="309.01"/><rect width="44.444" height="8.889" x="403.555" y="325.98"/><rect width="44.444" height="8.889" x="403.555" y="342.95"/><polygon points="365.679 250.02 362.588 241.131 305.778 241.131 305.778 250.02 365.679 250.02"/><polygon points="359.778 233.051 356.687 224.162 305.778 224.162 305.778 233.051 359.778 233.051"/></g></svg>