<?xml version="1.0" encoding="UTF-8"?>
<!-- Generator: Adobe Illustrator 26.3.0, SVG Export Plug-In . SVG Version: 6.00 Build 0)  -->
<svg version="1.1" id="Layer_1" xmlns="http://www.w3.org/2000/svg" xmlns:xlink="http://www.w3.org/1999/xlink" x="0px" y="0px" viewBox="0 0 1000 1000" style="enable-background:new 0 0 1000 1000;" xml:space="preserve">
<style type="text/css">
	.st0{fill:#CAE1E0;}
	.st1{fill:#E5F0EF;}
	.st2{fill:#133340;}
	.st3{fill:#2EA8AE;}
	.st4{fill:#2B93A2;}
	.st5{fill:#9BDCDD;}
	.st6{fill:#33ADB1;}
	.st7{fill:#3599A6;}
</style>
<g>
	<g>
		<path class="st0" d="M934.7,510.2c-0.7,4.8-6,5.4-10.8,5.4c-69.9-0.1-139.8-0.1-209.7-0.1c-1.6,0-5.1,0.1-6.7,0.1l1-3.5    c1.1-5.2,1-10.7,1.4-16c0.5-10.3-0.6-19.4-1.8-29c-0.9-5.5-1.8-9.5-2.9-14.3c-0.4-1.8-0.9-4.4-1.2-5.7c0,0,163.9,1,221.5,0.9    c4.3,0,8.1,1.3,9.1,5.3C934.7,471.7,934.7,491.3,934.7,510.2z"/>
		<path class="st0" d="M245.5,518.4c-56.3,0-112.6-0.1-168.9,0.1c-5.6,0-10.4-1.8-11.4-6.9c0-16.2,0.1-52.7,0.1-53.4    c1-4.3,4-8.1,10.4-8.1c1.2,0,165,0.9,173.4,0.7c0,0-0.6,3.4-0.9,5.4c-1.8,15-2.3,30-2,45.1c0.1,3.5,0.9,13.7,1.2,17.2L245.5,518.4    z"/>
		<path class="st1" d="M73.1,484.3"/>
		<path class="st2" d="M246.1,506c-0.6-6.3-0.4-4.1-0.7-12.3c-0.9-22.9,1.7-49.3,2.3-55.9c1.7-11.8,4-23.1,6.7-34.4    c12.6-52.9,36.9-99.6,72.7-140.1c36.1-40.9,79.6-70.7,130.5-89.2c11.3-4.1,22.9-7.3,35-11.1c0,2.4,0,3.8,0,5.3    c0,34.2,0,68.4,0,102.6c0,1.5,0.1,5,0.1,6.5l-3.8,1.7c-15.7,8.2-30.3,17.9-43.7,29.5c-20.2,17.3-36.7,37.7-49.8,60.9    c-14,24.7-22.9,51.2-26.8,79.4c-1.1,7.6-1.6,15.3-2,23c-0.6,10.6,0.2,21.1,0.9,31.7c2.2,22.8,7.7,44.6,16.4,65.7    c9.6,22.9,22.4,43.8,38.8,62.3c16.7,18.9,35.8,34.8,57.7,47c3.2,1.8,6.4,3.7,9.7,5.4c1.2,0.6,2.6,1.2,2.6,1.2    c0,36.9-0.3,75.8-0.3,112.8C373.8,771.8,258.3,662.9,246.1,506z"/>
		<path class="st3" d="M366.7,505.6c-4.1-39.2,1.7-78.1,17-114.3c11.7-27.7,28.5-52,49.8-73c16.3-16.1,34.7-29.3,55-39.7    c1.5-0.8,3.2-1.8,4.9-2.6c0,0,8.7-3.9,13.4-5.8c18.1-7.3,36.9-11.9,56.3-14.3l2.7,0v130.3c-3.8,0.4-7.7,0.6-11.5,1.1    c-41.9,5.5-76.4,39.5-80.8,84.9c-1,10.1-1,20.1,1.4,30c0.6,3,0.6,3,0.6,3L366.7,505.6z"/>
		<path class="st4" d="M366.6,505.1l108.9,0c2,5.7,3.6,11.7,6.2,17.1c17.2,34.9,46.6,53.1,85,54.9c0,0-0.3,61.9-0.3,89.4    c0,12.6,0,25.2,0,37.8l0.1,3.9c-1.1,0-3.3-0.1-3.3-0.1c-22.5-2.6-44.1-8.5-64.7-17.8c-1.9-0.8-7.8-3.7-8.9-4.3    c-25.5-12.9-47.9-30.2-66.9-51.8c-27.5-31.3-45.4-67.5-53.1-108.8C368.1,518.7,367.5,511.9,366.6,505.1z"/>
		<path class="st5" d="M566.4,598.1l0.1-150l137.7-0.7c0,0,0.2-0.1,0.9,2.2c1.8,6.1,2.7,13.3,3.9,20c0.6,3.1,0.9,6.3,1.2,9.5    c1.3,12.2-1.4,37.5-1.3,38c-3,18.5-9.3,36-19.3,51.7c-5.6,8.8-11.9,17.5-19,25.1c-14.8,15.9-32.5,28.5-52.8,36.2    c-15.5,5.9-26.8,8.7-39.6,9.7c-6.6,0.5-12,0.5-12,0.5S566.4,598.2,566.4,598.1"/>
		<path class="st5" d="M580.5,659.6"/>
		<path class="st6" d="M610.7,301.2c6.7,0.6,13.2,0.8,19.5,1.8c31.6,4.8,58.6,19,81.3,41.7l2.2,2.2c0,0-99.9,98.8-102.2,101.1    L610.7,301.2z"/>
		<path class="st7" d="M713.5,346.8c10.5,10.5,19.2,23.3,25.7,36.7c10,20.5,12.9,40.9,12.8,63.9L611.5,448L713.5,346.8z"/>
		<path class="st5" d="M571.1,691.7c0.7,0,1.5,0.1,2.2,0.1C572.5,691.8,571.8,691.8,571.1,691.7z"/>
	</g>
</g>
<path class="st5" d="M579.4,692.3"/>
<path class="st5" d="M579.6,690.6"/>
<path class="st5" d="M582.1,654.1"/>
<path class="st5" d="M601.5,681.3"/>
</svg>